<?xml version="1.0" encoding="UTF-8"?>
<svg xmlns="http://www.w3.org/2000/svg" xmlns:xlink="http://www.w3.org/1999/xlink" width="24px" height="24px" viewBox="0 0 24 24" version="1.1">
<g id="surface1">
<path style=" stroke:none;fill-rule:nonzero;fill:rgb(0%,0%,0%);fill-opacity:1;" d="M 12 0 C 5.382812 0 0 5.382812 0 12 C 0 18.617188 5.382812 24 12 24 C 18.617188 24 24 18.617188 24 12 C 24 5.382812 18.617188 0 12 0 Z M 12 21.675781 C 6.664062 21.675781 2.324219 17.335938 2.324219 12 C 2.324219 6.664062 6.664062 2.324219 12 2.324219 C 17.335938 2.324219 21.675781 6.664062 21.675781 12 C 21.675781 17.335938 17.335938 21.675781 12 21.675781 Z M 12 21.675781 "/>
<path style=" stroke:none;fill-rule:nonzero;fill:rgb(0%,0%,0%);fill-opacity:1;" d="M 16.652344 8.988281 L 15.011719 7.347656 L 12 10.359375 L 8.988281 7.347656 L 7.347656 8.988281 L 10.359375 12 L 7.347656 15.011719 L 8.988281 16.652344 L 12 13.640625 L 15.011719 16.652344 L 16.652344 15.011719 L 13.640625 12 Z M 16.652344 8.988281 "/>
</g>
</svg>
