<?xml version="1.0" encoding="UTF-8"?>
<svg xmlns="http://www.w3.org/2000/svg" xmlns:xlink="http://www.w3.org/1999/xlink" width="24px" height="24px" viewBox="0 0 24 24" version="1.1">
<g id="surface1">
<path style=" stroke:none;fill-rule:nonzero;fill:rgb(0%,0%,0%);fill-opacity:1;" d="M 2.097656 17.941406 L 16.957031 3.082031 L 20.917969 7.042969 L 6.058594 21.902344 Z M 2.097656 17.941406 "/>
<path style=" stroke:none;fill-rule:nonzero;fill:rgb(0%,0%,0%);fill-opacity:1;" d="M 22.613281 5.347656 L 23.179688 4.78125 C 23.707031 4.253906 24 3.550781 24 2.800781 C 24 2.054688 23.707031 1.351562 23.179688 0.820312 C 22.652344 0.292969 21.949219 0 21.199219 0 C 20.449219 0 19.75 0.292969 19.21875 0.820312 L 18.652344 1.386719 Z M 22.613281 5.347656 "/>
<path style=" stroke:none;fill-rule:nonzero;fill:rgb(0%,0%,0%);fill-opacity:1;" d="M 1.640625 18.617188 L 0.0195312 23.472656 C -0.0273438 23.617188 0.0117188 23.777344 0.117188 23.882812 C 0.191406 23.957031 0.296875 24 0.398438 24 C 0.441406 24 0.484375 23.992188 0.527344 23.980469 L 5.382812 22.359375 Z M 1.640625 18.617188 "/>
<path style=" stroke:none;fill-rule:nonzero;fill:rgb(0%,0%,0%);fill-opacity:1;" d="M 17.523438 2.519531 L 18.085938 1.953125 L 22.046875 5.914062 L 21.480469 6.480469 Z M 17.523438 2.519531 "/>
</g>
</svg>
