<?xml version="1.0" encoding="UTF-8"?>
<svg xmlns="http://www.w3.org/2000/svg" xmlns:xlink="http://www.w3.org/1999/xlink" width="24px" height="px" viewBox="0 0 24 24" version="1.1">
<g id="surface1">
<path style=" stroke:none;fill-rule:nonzero;fill:rgb(90.980393%,6.666667%,15.294118%);fill-opacity:1;" d="M 12.011719 0 C 5.382812 -0.00390625 0.00390625 5.363281 0 11.988281 C -0.00390625 18.617188 5.363281 23.996094 11.988281 24 C 18.617188 24.003906 23.996094 18.636719 24 12.011719 C 24 12.007812 24 12.003906 24 12 C 23.996094 5.378906 18.632812 0.0117188 12.011719 0 Z M 16.972656 12.972656 L 16.921875 13.035156 L 16.839844 13.121094 L 12.871094 17.8125 C 12.476562 18.289062 11.769531 18.351562 11.292969 17.957031 C 11.242188 17.914062 11.195312 17.867188 11.148438 17.8125 L 7.148438 13.035156 C 7.078125 13.035156 7.097656 13.035156 7.058594 12.933594 C 6.660156 12.417969 6.445312 11.789062 6.445312 11.140625 C 6.535156 9.347656 8.050781 7.960938 9.84375 8.03125 C 10.628906 8.039062 11.390625 8.304688 12.011719 8.789062 C 12.636719 8.320312 13.394531 8.070312 14.175781 8.074219 C 15.96875 8.003906 17.484375 9.386719 17.574219 11.179688 C 17.574219 11.828125 17.363281 12.457031 16.972656 12.972656 Z M 16.972656 12.972656 "/>
</g>
</svg>
