<?xml version="1.0" encoding="UTF-8"?>
<svg xmlns="http://www.w3.org/2000/svg" xmlns:xlink="http://www.w3.org/1999/xlink" width="24px" height="px" viewBox="0 0 24 24" version="1.1">
<g id="surface1">
<path style=" stroke:none;fill-rule:nonzero;fill:rgb(0%,0%,0%);fill-opacity:1;" d="M 12 0 C 5.371094 0 0 5.371094 0 12 C 0.00390625 18.625 5.375 23.996094 12 24 C 18.628906 24 24 18.628906 24 12 C 24 5.371094 18.628906 0 12 0 Z M 12 22.96875 C 5.941406 22.96875 1.03125 18.058594 1.03125 12 C 1.039062 5.945312 5.945312 1.039062 12 1.03125 C 18.058594 1.03125 22.96875 5.941406 22.96875 12 C 22.96875 18.058594 18.058594 22.96875 12 22.96875 Z M 12 22.96875 "/>
<path style=" stroke:none;fill-rule:nonzero;fill:rgb(0%,0%,0%);fill-opacity:1;" d="M 14.167969 8.054688 C 13.382812 8.054688 12.617188 8.304688 11.988281 8.777344 C 11.367188 8.308594 10.609375 8.054688 9.832031 8.054688 C 8.042969 7.992188 6.535156 9.367188 6.433594 11.152344 C 6.425781 11.804688 6.644531 12.441406 7.054688 12.949219 L 7.074219 13.03125 L 7.074219 13.09375 L 11.070312 17.8125 C 11.304688 18.078125 11.648438 18.21875 12 18.195312 C 12.335938 18.199219 12.65625 18.046875 12.867188 17.78125 L 16.824219 13.117188 L 16.914062 13.011719 L 16.96875 12.941406 C 17.359375 12.425781 17.570312 11.800781 17.578125 11.152344 C 17.476562 9.363281 15.960938 7.984375 14.167969 8.054688 Z M 16.128906 12.339844 C 16.128906 12.339844 16.128906 12.339844 16.058594 12.421875 L 12.082031 17.164062 L 11.90625 17.164062 L 7.953125 12.464844 L 7.871094 12.390625 C 7.605469 12.0625 7.46875 11.648438 7.476562 11.226562 C 7.53125 9.984375 8.585938 9.023438 9.828125 9.078125 C 9.828125 9.078125 9.828125 9.078125 9.832031 9.078125 C 10.503906 9.070312 11.152344 9.335938 11.628906 9.8125 C 11.730469 9.898438 11.863281 9.945312 12 9.933594 C 12.140625 9.933594 12.273438 9.878906 12.371094 9.78125 C 12.851562 9.300781 13.503906 9.039062 14.179688 9.046875 C 15.398438 8.976562 16.457031 9.890625 16.554688 11.113281 C 16.554688 11.558594 16.40625 11.988281 16.128906 12.339844 Z M 16.128906 12.339844 "/>
</g>
</svg>
